<?xml version="1.0" encoding="utf-8"?>
<!-- Generator: Adobe Illustrator 16.0.0, SVG Export Plug-In . SVG Version: 6.00 Build 0)  -->
<!DOCTYPE svg PUBLIC "-//W3C//DTD SVG 1.1//EN" "http://www.w3.org/Graphics/SVG/1.1/DTD/svg11.dtd">
<svg version="1.1" xmlns="http://www.w3.org/2000/svg" xmlns:xlink="http://www.w3.org/1999/xlink" x="0px" y="0px" width="512px"
	 height="512px" viewBox="0 0 512 512" enable-background="new 0 0 512 512" xml:space="preserve">
<g id="_x3C_Background_x3E__xA0_0_xA0_Image_1_" display="none">
	
		<image display="inline" overflow="visible" width="500" height="500" id="_x3C_Background_x3E__xA0_0_xA0_Image" xlink:href="DD3C44AE.jpg" >
	</image>
</g>
<g id="_x31_13763_xA0_Image_1_" display="none" opacity="0.349">
	
		<image display="inline" overflow="visible" width="461" height="431" id="_x31_13763_xA0_Image" xlink:href="DD3C44B2.png"  transform="matrix(1 0 0 1 20 35)">
	</image>
</g>
<g id="Ellipse_1_1_" enable-background="new    ">
</g>
<g id="Shape_1_1_" enable-background="new    ">
</g>
<g id="Shape_2_1_" enable-background="new    ">
	<g>
		<path fill="none" stroke="#000000" stroke-width="10" stroke-miterlimit="10" d="M73.396,301.05
			c-14.747,24.441-20.352,54.431-13.367,84.43c14.227,61.102,75.293,99.104,136.396,84.877
			c61.104-14.227,99.103-75.292,84.878-136.396c-14.228-61.102-75.292-99.103-136.396-84.877
			c-18.925,4.405-35.632,13.307-49.26,25.308"/>
		<g id="Shape_1_2_">
			<g>
				
					<polygon fill="none" stroke="#000000" stroke-width="10" stroke-linecap="round" stroke-linejoin="round" stroke-miterlimit="10" points="
					199.011,470.358 167.257,473.342 502.203,473.342 502.203,367.112 				"/>
			</g>
		</g>
		
			<circle fill-rule="evenodd" clip-rule="evenodd" fill="none" stroke="#000000" stroke-width="10" stroke-miterlimit="10" cx="45.664" cy="74.527" r="35.86"/>
		<path fill-rule="evenodd" clip-rule="evenodd" fill="none" stroke="#000000" stroke-width="10" stroke-miterlimit="10" d="
			M213.187,254.008c0,0,49.865-3.411,68.065,15.744c20.946,22.046,67.616,89.886,86.191,105.09
			c12.004,9.823,16.197,8.744,25.085,3.805c8.782-4.886,8.89-18.438,2.688-28.676c-4.505-7.441-54.498-86.744-64.861-98.94
			c-11.724-13.795-33.574-45.038-59.258-41.671c-11.146,1.461-103.61,12.761-103.61,12.761s-21.237-45.475-31.968-64.245
			c-15.831-27.689-44.478-35.269-44.478-35.269s-36.227,12.89-43.186,25.91c-11.031,20.635-23.558,48.31-14.634,86.639
			c11.271,48.409,76.624,100.631,76.624,100.631s17.936,9.186,29.486-3.83c11.549-13.016-8.667-25.32-8.667-25.32
			s-53.277-44.318-61.526-66.698c-4.139-11.233-9.415-45.322-2.356-56.339c12.505,27.749,47.366,77.559,47.366,77.559"/>
	</g>
</g>
</svg>
