<?xml version="1.0" encoding="utf-8"?>
<!-- Generator: Adobe Illustrator 16.0.0, SVG Export Plug-In . SVG Version: 6.00 Build 0)  -->
<!DOCTYPE svg PUBLIC "-//W3C//DTD SVG 1.1//EN" "http://www.w3.org/Graphics/SVG/1.1/DTD/svg11.dtd">
<svg version="1.1" xmlns="http://www.w3.org/2000/svg" xmlns:xlink="http://www.w3.org/1999/xlink" x="0px" y="0px" width="512px"
	 height="512px" viewBox="0 0 512 512" enable-background="new 0 0 512 512" xml:space="preserve">
<g id="_x3C_Background_x3E__xA0_0_xA0_Image_1_" display="none">
	
		<image display="inline" overflow="visible" width="500" height="500" id="_x3C_Background_x3E__xA0_0_xA0_Image" xlink:href="641C1446.jpg" >
	</image>
</g>
<g id="Image_xA0_1_xA0_Image_1_" display="none" opacity="0.4">
	
		<image display="inline" overflow="visible" width="373" height="455" id="Image_xA0_1_xA0_Image" xlink:href="641C144A.png"  transform="matrix(1 0 0 1 60 19)">
	</image>
</g>
<g id="Ellipse_1_1_" enable-background="new    ">
</g>
<g id="Layer_6">
</g>
<g id="Layer_5">
	<path display="none" fill-rule="evenodd" clip-rule="evenodd" d="M250,363.357c0,0,10.02-41.242,14.798-58.851
		s7.168-68.382,7.168-68.382l97.963,7.766l79.445,83.029l-34.048,41.216l-14.934,11.947c0,0-6.474,4.297-22.102,13.917
		c-10.545,6.491-46.296,20.962-46.296,20.962L250,363.357z"/>
	<path display="none" d="M172.808,335.282c0,0,21.205-28.018,35.84-50.475c16.612-25.491,37.852-69.589,37.852-69.589l7.546,14.336
		c0,0-2.548,36.437-7.546,59.136c-4.999,22.699-19.334,65.707-19.334,65.707L172.808,335.282z"/>
	<path display="none" fill-rule="evenodd" clip-rule="evenodd" d="M338.867,432.051c0,0,37.034-7.766,50.773-14.336
		s45.995-32.256,45.995-32.256l38.229,59.733l-53.163,48.981l-57.941-5.973L338.867,432.051z"/>
	<path display="none" d="M144.136,253.447c0,0,22.524-14.869,40.864-28.074c19.073-13.733,37.984-55.553,37.984-55.553l8.96,26.283
		c0,0-19.115,47.787-27.478,60.331s-41.813,56.149-41.813,56.149L144.136,253.447z"/>
	<path display="none" fill-rule="evenodd" clip-rule="evenodd" d="M128.008,181.17c0,0,24.257-3.178,44.203-11.349
		c24.79-10.155,59.136-34.048,59.136-34.048l-92.587-6.571l-21.504,30.464L128.008,181.17z"/>
	<path display="none" fill-rule="evenodd" clip-rule="evenodd" d="M129.202,200.882c0,0,22.699-4.779,37.035-10.155
		s37.94-20.023,37.94-20.023s-7.178,20.023-25.994,34.359c-8.175,6.228-32.854,24.491-32.854,24.491L129.202,200.882z"/>
	<g>
		<g id="Ellipse_1">
			<g>
				
					<ellipse fill="none" stroke="#000000" stroke-width="10" stroke-miterlimit="10" cx="145.368" cy="59.442" rx="49.629" ry="50.187"/>
			</g>
		</g>
		<path fill="none" stroke="#000000" stroke-width="10" stroke-linecap="round" stroke-linejoin="round" stroke-miterlimit="10" d="
			M60.051,177.151c0,0,46.055,156.501,54.648,176.72c10.427,24.535,30.669,63.568,74.722,63.568c25.65,0,113.756,0,113.756,0"/>
		<path fill-rule="evenodd" clip-rule="evenodd" fill="none" stroke="#060407" stroke-width="10" stroke-miterlimit="10" d="
			M125.381,177.151c1.482-20.468,12.657-37.708,26.647-43.038c13.99-5.33,38.639,3.331,47.965,16.654
			c14.488,20.698,40.627,85.004,50.209,102.172c8.416,15.076,16.409,12.41,37.728,15.742c21.317,3.33,45.301,5.998,61.289,11.324
			c15.987,5.33,31.978,15.99,39.304,27.98c7.329,11.992,49.964,80.607,49.964,80.607l-16.654,13.324
			c0,0,21.271,39.992,25.982,51.297c6.659,15.986,5.994,39.82-7.329,46.633s-33.976,0.666-38.64-8.662
			c-4.662-9.324-43.362-86.459-49.743-104.547c-3.786-10.736-22.869-28.688-38.857-28.688c-15.989,0-81.941,6.66-97.93,6.66
			c-15.988,0-41.969-9.992-52.628-36.641C155.821,310.807,124.049,195.54,125.381,177.151z"/>
	</g>
</g>
</svg>
